<svg xmlns="http://www.w3.org/2000/svg" viewBox="0 0 24 24" width="24" height="24">
  <path d="M16.462 16.965c-.532.618-1.11 1.466-1.866 1.488-.813.022-1.02-.517-2.101-.517-1.08 0-1.309.5-2.1.532-.844.032-1.485-.95-2.017-1.563-1.729-1.995-1.856-4.318-.837-5.552.765-.93 1.887-1.486 2.967-1.486 1.112 0 1.809.517 2.726.517.883 0 1.425-.517 2.704-.517 1.024 0 2.109.466 2.877 1.27-2.53 1.37-2.124 4.93.647 5.828zm-2.75-10.384c.785-.952.695-2.258.337-3.322-1.02.156-2.19.98-2.873 1.932-.627.85-.99 2.106-.52 3.33 1.09.05 2.222-.76 3.056-1.94z" fill="white"/>
</svg>